Coordinates
version=1
nRows=4
nColumns=107
inDegrees=yes

Units are S.I. units (second, meters, Newtons, ...)
If the header above contains a line with 'inDegrees', this indicates whether rotational values are in degrees (yes) or radians (no).

endheader
time	sternoclavicular_r2	sternoclavicular_r3	unrotscap_r3	unrotscap_r2	acromioclavicular_r2	acromioclavicular_r3	acromioclavicular_r1	unrothum_r1	unrothum_r3	unrothum_r2	elv_angle	shoulder_elv	shoulder1_r2	shoulder_rot	elbow_flexion	pro_sup	deviation	flexion	proximal_distal_r1	proximal_distal_r3	cmc_flexion	cmc_abduction	mp_flexion	ip_flexion	mcp2_flexion	mcp2_abduction	pm2_flexion	md2_flexion	mcp3_flexion	mcp3_abduction	pm3_flexion	md3_flexion	mcp4_flexion	mcp4_abduction	pm4_flexion	md4_flexion	mcp5_flexion	mcp5_abduction	pm5_flexion	md5_flexion	bicpt_tx	bicpt_ty	bicpt_tz	bicpt2_tx	bicpt2_ty	bicpt2_tz	ptpt_tx	ptpt_ty	ptpt_tz	FCUpt_tx	FCUpt_ty	FCUpt_tz	EDCpt_tx	EDCpt_ty	EDCpt_tz	APLpt_tx	APLpt_ty	APLpt_tz	FPLpt_tx	FPLpt_ty	FPLpt_tz	FPLpt2_tx	FPLpt2_ty	FPLpt2_tz	PEC1pt2_tx	PEC1pt2_ty	PEC1pt2_tz	PEC1pt3_tx	PEC1pt3_ty	PEC1pt3_tz	PEC2pt2_tx	PEC2pt2_ty	PEC2pt2_tz	PEC2pt3_tx	PEC2pt3_ty	PEC2pt3_tz	PEC3pt2_tx	PEC3pt2_ty	PEC3pt2_tz	PEC3pt3_tx	PEC3pt3_ty	PEC3pt3_tz	DELT2pt2a_tx	DELT2pt2a_ty	DELT2pt2a_tz	DELT2pt2_tx	DELT2pt2_ty	DELT2pt2_tz	LAT1pt2_tx	LAT1pt2_ty	LAT1pt2_tz	LAT1pt3_tx	LAT1pt3_ty	LAT1pt3_tz	LAT2pt2_tx	LAT2pt2_ty	LAT2pt2_tz	LAT2pt3_tx	LAT2pt3_ty	LAT2pt3_tz	LAT3pt2_tx	LAT3pt2_ty	LAT3pt2_tz	LAT3pt3_tx	LAT3pt3_ty	LAT3pt3_tz
      0.80000000	     -0.31936702	      0.13526880	     -0.13526880	      0.31936702	     -0.06466533	      0.52260241	      0.23490619	     -0.23490619	     -0.52260241	      0.06466533	     99.82787239	     75.61298113	     -1.74232506	    -28.07916022	     29.57984406	     54.19688494	      0.31906079	     -0.14484249	      0.34968703	     -0.07242124	     23.63932670	    -12.18416363	    -11.57124889	    -13.50441743	     14.36278618	     12.49101733	     37.63103814	     33.83695500	     28.86866222	      6.20844394	     37.68157535	     25.65484771	     31.02812353	     -3.42507512	     41.44935231	     25.74087502	     33.61656855	    -13.76463502	     48.59166200	      5.40634236	      0.00087841	     -0.03099030	     -0.00484609	      0.01637039	     -0.01823551	     -0.00581320	      0.00354546	     -0.06748940	     -0.00441585	      0.00924066	     -0.18317112	     -0.00041131	     -0.00650361	      0.00198886	     -0.00001011	      0.00013062	      0.00005225	      0.00026125	      0.00016720	      0.00050160	      0.00028215	      0.00000320	     -0.00028053	     -0.00033664	      0.00247843	      0.00869550	      0.00604904	     -0.00810740	      0.01957538	     -0.01856720	      0.00247843	      0.00869550	      0.00604904	      0.00054609	      0.01814713	     -0.00953565	      0.00392691	      0.00483546	      0.01591601	      0.00000000	      0.00764536	      0.00000000	     -0.00709922	     -0.03280766	     -0.00630319	      0.01800185	     -0.00069207	     -0.00658636	     -0.00088215	      0.01478655	     -0.00604904	      0.00243642	      0.02133968	     -0.01764304	     -0.00592302	      0.01281221	     -0.00541893	     -0.01235013	      0.02705267	     -0.03028723	     -0.02318800	      0.01432447	     -0.00726725	     -0.01537465	      0.03125339	     -0.03784853
      0.83333333	     -0.30931563	      0.13101150	     -0.13101150	      0.30931563	     -0.06263012	      0.50615463	      0.22751302	     -0.22751302	     -0.50615463	      0.06263012	    103.01815451	     73.23322573	     -1.79800599	    -42.49397924	     30.87452615	     68.69936156	      0.27365027	     -0.04332169	      0.31008858	     -0.02166084	     25.61707275	    -12.82247083	    -10.31673913	    -12.70438880	      6.80594101	     12.37234086	     37.09259283	     21.22266958	     21.44573433	      6.17840067	     32.15058932	     23.54550899	     23.21578568	     -1.33100679	     34.47975375	     25.05817156	     24.85499449	    -13.60026928	     43.57658409	      5.37420375	      0.00092123	     -0.03113869	     -0.00486999	      0.01568587	     -0.01858722	     -0.00382891	      0.00247389	     -0.06818230	     -0.00558410	      0.01079676	     -0.18278111	     -0.00028001	     -0.00824390	      0.00267481	     -0.00028281	      0.00004275	      0.00001710	      0.00008551	      0.00005472	      0.00016417	      0.00009235	     -0.00000103	     -0.00027585	     -0.00033102	      0.00240042	      0.00842183	      0.00585866	     -0.00785224	      0.01895928	     -0.01798284	      0.00240042	      0.00842183	      0.00585866	      0.00052891	      0.01757599	     -0.00923553	      0.00383530	      0.00468327	      0.01568575	      0.00000000	      0.00716873	      0.00000000	     -0.00687579	     -0.03177511	     -0.00590730	      0.02337269	     -0.00120223	     -0.01441305	     -0.00085439	      0.01432118	     -0.00585866	      0.00235974	      0.02066806	     -0.01708777	     -0.00573661	      0.01240897	     -0.00524839	     -0.01196144	      0.02620124	     -0.02933400	     -0.02245821	      0.01387364	     -0.00703853	     -0.01489077	      0.03026976	     -0.03665733
      0.86666667	     -0.30750730	      0.13024558	     -0.13024558	      0.30750730	     -0.06226397	      0.50319552	      0.22618292	     -0.22618292	     -0.50319552	      0.06226397	    103.93883240	     72.80508569	     -1.81407485	    -45.94253967	     31.00420616	     72.34739893	      0.28779755	      0.03369443	      0.32278768	      0.01684722	     26.80650615	    -12.12314905	    -10.36791292	    -12.50669756	      4.04854327	     11.77747531	     31.46336184	     17.37430589	     16.82540145	      5.34776572	     26.39677149	     21.10412247	     16.89410086	     -0.49471720	     29.14265815	     23.65224678	     18.08618579	    -13.57550713	     38.03579389	      5.35477042	      0.00092552	     -0.03115356	     -0.00487238	      0.01543795	     -0.01862244	     -0.00328335	      0.00220434	     -0.06835659	     -0.00587797	      0.01119841	     -0.18267361	     -0.00022205	     -0.00868167	      0.00285757	     -0.00036935	     -0.00003542	     -0.00001417	     -0.00007085	     -0.00004534	     -0.00013602	     -0.00007651	     -0.00000335	     -0.00027095	     -0.00032514	      0.00238639	      0.00837259	      0.00582441	     -0.00780633	      0.01884844	     -0.01787771	      0.00238639	      0.00837259	      0.00582441	      0.00052581	      0.01747324	     -0.00918154	      0.00381860	      0.00465589	      0.01564286	      0.00000000	      0.00708466	      0.00000000	     -0.00683559	     -0.03158934	     -0.00583743	      0.02424554	     -0.00133005	     -0.01656097	     -0.00084939	      0.01423745	     -0.00582441	      0.00234594	      0.02054723	     -0.01698787	     -0.00570307	      0.01233643	     -0.00521770	     -0.01189151	      0.02604806	     -0.02916251	     -0.02232691	      0.01379253	     -0.00699738	     -0.01480371	      0.03009279	     -0.03644302
      0.90000000	     -0.30611559	      0.12965612	     -0.12965612	      0.30611559	     -0.06198218	      0.50091818	      0.22515928	     -0.22515928	     -0.50091818	      0.06198218	    104.81129194	     72.47558799	     -1.82930214	    -49.13586194	     31.08385564	     75.50927748	      0.29685366	      0.09120160	      0.33074365	      0.04560080	     27.17496379	    -11.83456734	    -10.50564904	    -12.17996371	      1.74184608	     11.16623131	     27.64896445	     13.18809599	     12.27508775	      4.40964317	     22.19768965	     19.21803525	     10.88450295	      0.17056736	     24.16716933	     22.66556257	     11.88478502	    -13.53882927	     33.52345688	      5.32356699	      0.00092816	     -0.03116268	     -0.00487386	      0.01519854	     -0.01864408	     -0.00279547	      0.00197072	     -0.06850766	     -0.00613268	      0.01154984	     -0.18257738	     -0.00016375	     -0.00906109	      0.00301929	     -0.00045016	     -0.00010025	     -0.00004010	     -0.00020049	     -0.00012832	     -0.00038495	     -0.00021653	     -0.00000403	     -0.00026911	     -0.00032294	      0.00237559	      0.00833470	      0.00579805	     -0.00777100	      0.01876314	     -0.01779680	      0.00237559	      0.00833470	      0.00579805	      0.00052344	      0.01739416	     -0.00913998	      0.00380570	      0.00463482	      0.01560953	      0.00000000	      0.00702030	      0.00000000	     -0.00680466	     -0.03144638	     -0.00578395	      0.02491224	     -0.00144956	     -0.01861753	     -0.00084555	      0.01417302	     -0.00579805	      0.00233533	      0.02045424	     -0.01691098	     -0.00567726	      0.01228060	     -0.00519409	     -0.01183769	      0.02593018	     -0.02903052	     -0.02222587	      0.01373011	     -0.00696572	     -0.01473672	      0.02995660	     -0.03627809
